<?xml version="1.0" encoding="UTF-8"?>
<!DOCTYPE svg PUBLIC "-//W3C//DTD SVG 1.1//EN" "http://www.w3.org/Graphics/SVG/1.1/DTD/svg11.dtd">
<!-- Creator: CorelDRAW -->
<svg xmlns="http://www.w3.org/2000/svg" xml:space="preserve" width="6.82666in" height="6.82666in" style="shape-rendering:geometricPrecision; text-rendering:geometricPrecision; image-rendering:optimizeQuality; fill-rule:evenodd; clip-rule:evenodd"
viewBox="0 0 6.82666 6.82666"
 xmlns:xlink="http://www.w3.org/1999/xlink">
 <defs>
  <style type="text/css">
   <![CDATA[
    .fil0 {fill:#42A5F5}
    .fil2 {fill:#FFFFFE}
    .fil1 {fill:#FFFFFE;fill-rule:nonzero}
   ]]>
  </style>
 </defs>
 <g id="Layer_x0020_1">
  <metadata id="CorelCorpID_0Corel-Layer"/>
  <rect class="fil0" width="6.82666" height="6.82666" rx="0.853335" ry="0.853335"/>
  <g id="_318670200">
   <polygon id="_318671136" class="fil1" points="5.17233,2.39415 5.44257,1.20312 5.46148,1.11978 5.54633,1.11978 5.95161,1.11978 5.95161,1.33313 5.63118,1.33313 5.39044,2.39415 "/>
   <g>
    <polygon id="_318670968" class="fil1" points="3.77195,2.50083 5.84493,2.50083 5.97333,2.50083 5.94952,2.62709 5.48681,5.08067 5.47038,5.16776 5.38222,5.16776 4.23466,5.16776 4.14649,5.16776 4.13006,5.08067 3.66736,2.62709 3.64355,2.50083 "/>
    <g>
     <path id="_318669960" class="fil2" d="M0.981543 4.54516c-0.0367362,0 -0.0677953,0.0189331 -0.0904528,0.0470079 -0.0251299,0.0311378 -0.0377598,0.0721063 -0.0377598,0.111866l0 0.105925c0,0.0397559 0.0126457,0.0807165 0.0377677,0.111846 0.0226457,0.028063 0.0537205,0.0470315 0.0904449,0.0470315l2.73517 0c0.0367165,0 0.0677874,-0.0189882 0.0904291,-0.0470433 0.0251181,-0.031122 0.0377874,-0.0720827 0.0377874,-0.111835l0 -0.105925c0,-0.039748 -0.0126575,-0.0807244 -0.0377795,-0.111854 -0.0226535,-0.0280709 -0.0537047,-0.0470197 -0.090437,-0.0470197l-2.73517 0z"/>
     <path id="_318670608" class="fil2" d="M3.4793 4.0473c0.0850472,0.134898 0.123988,0.309028 0.137311,0.447035l-2.53496 0c0.0133228,-0.138008 0.0522677,-0.312138 0.137315,-0.447035 0.0844409,-0.133929 0.210504,-0.230827 0.395071,-0.230827l1.47019 0c0.184563,0 0.310634,0.0968976 0.395075,0.230827zm-0.751378 1.37948c-0.0377638,0 -0.068374,-0.037937 -0.068374,-0.0847323 0,-0.0467992 0.0306102,-0.0847323 0.068374,-0.0847323 0.0377677,0 0.0683819,0.0379331 0.0683819,0.0847323 0,0.0467953 -0.0306142,0.0847323 -0.0683819,0.0847323zm0.341906 -0.0847362c-0.0377638,0 -0.0683819,-0.037937 -0.0683819,-0.0847323 0,-0.0467992 0.0306181,-0.0847323 0.0683819,-0.0847323 0.0377677,0 0.0683819,0.0379331 0.0683819,0.0847323 0,0.0467953 -0.0306142,0.0847323 -0.0683819,0.0847323zm-1.4045 0c-0.0377638,0 -0.068378,-0.037937 -0.068378,-0.0847323 0,-0.0467992 0.0306142,-0.0847323 0.068378,-0.0847323 0.0377677,0 0.0683819,0.0379331 0.0683819,0.0847323 0,0.0467953 -0.0306142,0.0847323 -0.0683819,0.0847323zm0.341906 -0.0847362c-0.0377638,0 -0.068378,-0.037937 -0.068378,-0.0847323 0,-0.0467953 0.0306142,-0.0847323 0.068378,-0.0847323 0.0377638,0 0.068378,0.037937 0.068378,0.0847323 0,0.0467953 -0.0306142,0.0847323 -0.068378,0.0847323zm0.478665 3.93701e-006c-0.0377677,0 -0.0683819,-0.037937 -0.0683819,-0.0847323 0,-0.0467992 0.0306142,-0.0847323 0.0683819,-0.0847323 0.0377598,0 0.068374,0.0379331 0.068374,0.0847323 0,0.0467953 -0.0306142,0.0847323 -0.068374,0.0847323zm-0.752189 -1.076c0.0377638,0 0.0683819,0.037937 0.0683819,0.0847323 0,0.0467953 -0.0306181,0.0847362 -0.0683819,0.0847362 -0.0377598,0 -0.068378,-0.0379409 -0.068378,-0.0847362 0,-0.0467953 0.0306181,-0.0847323 0.068378,-0.0847323zm0.445374 0c0.0377598,0 0.0683819,0.037937 0.0683819,0.0847323 0,0.0467953 -0.030622,0.0847362 -0.0683819,0.0847362 -0.0377638,0 -0.068378,-0.0379409 -0.068378,-0.0847362 0,-0.0467953 0.0306142,-0.0847323 0.068378,-0.0847323zm-0.718898 0.0847362c0.0377638,0 0.0683819,0.037937 0.0683819,0.0847323 0,0.0467953 -0.0306181,0.0847323 -0.0683819,0.0847323 -0.0377598,0 -0.068378,-0.037937 -0.068378,-0.0847323 0,-0.0467953 0.0306181,-0.0847323 0.068378,-0.0847323zm1.60964 -0.0847362c0.0377677,0 0.0683819,0.037937 0.0683819,0.0847323 0,0.0467953 -0.0306142,0.0847362 -0.0683819,0.0847362 -0.0377638,0 -0.068378,-0.0379409 -0.068378,-0.0847362 0,-0.0467953 0.0306142,-0.0847323 0.068378,-0.0847323zm-0.445374 0c0.0377677,0 0.0683819,0.037937 0.0683819,0.0847323 0,0.0467953 -0.0306142,0.0847362 -0.0683819,0.0847362 -0.0377638,0 -0.068374,-0.0379409 -0.068374,-0.0847362 0,-0.0467953 0.0306102,-0.0847323 0.068374,-0.0847323zm-1.5428 0.847713l2.53496 0c-0.0133228,0.138008 -0.0522677,0.312138 -0.137311,0.447028 -0.0844409,0.133933 -0.210512,0.230831 -0.395075,0.230831l-1.47019 0c-0.184567,0 -0.310638,-0.0968976 -0.395071,-0.230835 -0.0850472,-0.134886 -0.123992,-0.309016 -0.137315,-0.447024z"/>
    </g>
   </g>
  </g>
 </g>
</svg>
